<?xml version="1.0" encoding="UTF-8"?>
<svg width="72px" height="72px" viewBox="0 0 72 72" version="1.1" xmlns="http://www.w3.org/2000/svg" xmlns:xlink="http://www.w3.org/1999/xlink">
    <!-- Generator: Sketch 52.5 (67469) - http://www.bohemiancoding.com/sketch -->
    <title>icon / browser / chrome / off</title>
    <desc>Created with Sketch.</desc>
    <g id="icon-/-browser-/-chrome-/-off" stroke="none" stroke-width="1" fill="none" fill-rule="evenodd">
        <g id="chrome" transform="translate(1.000000, 1.000000)" fill="#000000">
            <g id="Group">
                <path d="M30.1074,68.9453 C13.1194,66.7343 0.0004,52.2083 0.0004,34.6183 C0.0004,27.6763 2.0434,21.2113 5.5614,15.7933 L20.1114,40.9963 C22.5654,46.5693 28.1374,50.4603 34.6184,50.4603 C37.1874,50.4603 39.6134,49.8483 41.7594,48.7623 L30.1074,68.9453 Z" id="Path"></path>
                <path d="M32.6804,69.1823 L46.7634,44.7903 C49.0704,42.0383 50.4604,38.4903 50.4604,34.6183 C50.4604,28.9133 47.4444,23.9123 42.9204,21.1233 L66.5064,21.1233 C68.2634,25.2703 69.2364,29.8303 69.2364,34.6183 C69.2364,53.7373 53.7374,69.2363 34.6184,69.2363 C33.9674,69.2363 33.3214,69.2173 32.6804,69.1823 Z" id="Path"></path>
                <path d="M7.0494,13.6773 C13.3734,5.3653 23.3684,0.0003 34.6184,0.0003 C48.0284,0.0003 59.6574,7.6253 65.4064,18.7763 L34.0314,18.7763 L34.0314,18.7863 C25.7564,19.0883 19.1014,25.7363 18.7874,34.0073 L7.0494,13.6773 Z" id="Path"></path>
                <path d="M34.6184,46.9393 C27.8134,46.9393 22.2964,41.4233 22.2964,34.6183 C22.2964,27.8133 27.8134,22.2963 34.6184,22.2963 C41.4224,22.2963 46.9394,27.8133 46.9394,34.6183 C46.9394,41.4233 41.4224,46.9393 34.6184,46.9393 Z" id="Path"></path>
            </g>
        </g>
    </g>
</svg>