<?xml version="1.0" encoding="UTF-8"?>
<svg width="72px" height="72px" viewBox="0 0 72 72" version="1.1" xmlns="http://www.w3.org/2000/svg" xmlns:xlink="http://www.w3.org/1999/xlink">
    <!-- Generator: Sketch 52.5 (67469) - http://www.bohemiancoding.com/sketch -->
    <title>icon / browser / ie / off</title>
    <desc>Created with Sketch.</desc>
    <g id="icon-/-browser-/-ie-/-off" stroke="none" stroke-width="1" fill="none" fill-rule="evenodd">
        <g id="Microsoft_Edge_logo" transform="translate(3.000000, 0.000000)" fill="#000000">
            <path d="M20.8094843,42.4683353 C20.8094843,44.1894205 21.0665295,45.7540433 21.5917957,47.1622039 C22.1505896,48.5480128 22.8770217,49.7885352 23.8046195,50.8725953 C24.7322174,51.9566555 25.8162775,52.8842533 27.0903276,53.6665648 C28.3196741,54.4488762 29.6607794,55.0970771 31.0912918,55.5999916 C32.5106283,56.114082 33.99702,56.4940618 35.5057635,56.7399311 C37.0368587,56.9858004 38.5232505,57.1087351 40.031994,57.1087351 C41.9318932,57.1087351 43.6976818,56.9634487 45.3740635,56.6617 C47.0504452,56.3487754 48.6821233,55.9352679 50.2914497,55.4100017 C51.9007761,54.8847354 53.4542231,54.2588863 55.0076701,53.5436301 C56.572293,52.8283739 58.1592676,52.0460625 59.7909457,51.174344 L59.7909457,66.3288342 C57.9692777,67.2229044 56.1811372,67.9716882 54.3929968,68.6198891 C52.6048564,69.2457383 50.8167159,69.7933563 48.9950479,70.2292155 C47.1733798,70.6762506 45.32936,71.011527 43.4406367,71.2126928 C41.5519133,71.4138586 39.6184865,71.5256173 37.6068285,71.5256173 C34.9246178,71.5256173 32.3318142,71.2126928 29.8395935,70.5980195 C27.3473728,69.9833462 25.0116143,69.1004519 22.8211423,67.9381606 C20.6306703,66.7758693 18.6301881,65.3677087 16.8085201,63.7136788 C14.9756761,62.0596489 13.4222291,60.1932773 12.1146514,58.12574 C10.8070737,56.0582026 9.80124475,53.7894994 9.0748127,51.3531581 C8.3707324,48.9168167 8.01310432,46.3240131 8.01310432,43.5747472 C8.01310432,40.6354913 8.41543591,37.8415219 9.22009911,35.1704871 C10.0359382,32.4882765 11.1870536,30.0519352 12.706973,27.8167596 C14.2157164,25.5815841 16.0597363,23.5922778 18.2390324,21.8600168 C20.4183286,20.1277558 22.8658458,18.7084193 25.59276,17.6131833 C24.1063682,19.099575 22.9440769,20.8541878 22.1282379,22.8993734 C21.290047,24.9333832 20.7647808,26.9785688 20.5300874,29.0237544 L45.9887368,29.0237544 C45.9887368,26.4533025 45.7316916,24.218127 45.2064253,22.295876 C44.6811591,20.3736251 43.8429683,18.7754746 42.6695011,17.5126004 C41.5072098,16.2385503 40.0096422,15.2774248 38.1656224,14.6515757 C36.3216026,14.0145506 34.0976029,13.6904502 31.4936234,13.6904502 C28.420257,13.6904502 25.3468906,14.1374853 22.2735243,15.0650832 C19.2001579,15.9591534 16.2832538,17.2443793 13.5116361,18.8648816 C10.7400185,20.5077356 8.19191836,22.4411624 5.8673358,24.6539862 C3.54275323,26.8891618 1.58697463,29.2919755 0,31.895955 C0.335276331,28.878468 1.00582899,25.9727398 1.93342684,23.212298 C2.86102469,20.4518562 4.09037124,17.8814043 5.5655871,15.5009424 C7.04080296,13.1540081 8.773064,11.0082395 10.7511944,9.08598858 C12.7293247,7.16373761 14.9197967,5.50970771 17.3449622,4.16860239 C19.7701277,2.82749706 22.3405795,1.74343692 25.134549,1.01700487 C27.9285184,0.379979842 30.9013019,0 34.0305476,0 C35.8633916,0 37.6850596,0.167638166 39.5067277,0.491738619 C41.3283958,0.82701495 43.1053603,1.27405006 44.8376214,1.8551957 C48.2797917,3.03983874 51.3531581,4.69386864 54.0577205,6.79493365 C56.7622829,8.91835041 59.0309861,11.33234 60.8750059,14.0927818 C62.7190257,16.8532236 64.1160104,19.9042382 65.0771359,23.2234739 C66.0382614,26.5427096 66.53,29.9960558 66.53,33.5835125 L66.53,42.4683353 L20.8094843,42.4683353 Z" id="Path"></path>
        </g>
    </g>
</svg>