<?xml version="1.0" encoding="UTF-8"?>
<svg width="72px" height="72px" viewBox="0 0 72 72" version="1.1" xmlns="http://www.w3.org/2000/svg" xmlns:xlink="http://www.w3.org/1999/xlink">
    <!-- Generator: Sketch 52.5 (67469) - http://www.bohemiancoding.com/sketch -->
    <title>icon / browser / firefox / off</title>
    <desc>Created with Sketch.</desc>
    <g id="icon-/-browser-/-firefox-/-off" stroke="none" stroke-width="1" fill="none" fill-rule="evenodd">
        <g id="firefox" transform="translate(1.000000, 1.000000)" fill="#000000">
            <g id="img" transform="translate(0.000000, 0.000000)">
                <path d="M35.1217047,69.2360071 C15.7245228,69.2360071 0,53.736999 0,34.6180036 C0,15.4990081 15.7245228,0 35.1217047,0 C54.5188865,0 70.2434093,15.4990081 70.2434093,34.6180036 C70.2434093,53.736999 54.5188865,69.2360071 35.1217047,69.2360071 Z M36.1157514,63.0407963 C54.2625945,63.0407963 64.2899252,52.4407959 64.2899252,34.6180036 C64.2899252,23.6780841 60.2759698,15.056112 52.2278337,9.22004594 C51.6669637,8.81333387 52.8462685,7.37872294 52.2278333,7.0101028 C47.2630715,4.05084175 41.436507,2.34698329 35.2047494,2.34698329 C21.8197616,2.34698329 10.3040646,10.2074507 5.18212438,21.4847134 C3.35993829,25.4967226 4.55186408,29.9411813 4.55186408,34.6180036 C4.55186408,52.4407959 17.9689083,63.0407963 36.1157514,63.0407963 Z" id="Oval-1"></path>
                <path d="M6.36653598,7.27816938 L11.0891523,13.9953777 L19.188995,14.720215 L27.0418773,10.2829497 L24.5694083,15.4450524 C24.5694083,15.4450524 25.7721227,17.188673 25.7721227,18.8314468 C25.7721227,18.8314468 33.5921316,18.8314468 33.5921316,18.8314468 C33.5921316,18.8314468 35.1629208,19.8450731 33.8095091,21.4167955 C32.4560973,22.988518 26.8951909,27.2458632 26.8951909,27.2458632 L26.8573733,31.7593367 L21.7285043,31.8682055 C21.7285043,31.8682055 21.5732229,38.0026789 25.6924765,39.134342 C29.8117302,40.2660051 35.2259502,37.5001632 35.2259502,37.5001632 C35.2259502,37.5001632 39.3623936,36.8715888 40.9335431,38.7028776 C42.5046925,40.5341663 42.3287834,41.1117442 40.3215855,41.7701143 C38.3143876,42.4284843 33.7894543,46.2371752 30.3234138,46.2371752 C26.8573733,46.2371752 25.7681117,46.0904888 25.7681117,46.0904888 C25.7681117,46.0904888 27.1805419,48.2323402 30.0592636,49.1456926 C32.9379852,50.059045 46.2681169,53.3233916 52.9137009,41.6658294 C54.2688317,38.7028776 54.2310141,33.0881097 54.2310141,33.0881097 L57.0719182,34.9818547 C57.0719182,34.9818547 58.9278456,27.741503 57.0719182,23.2864749 C57.0719182,23.2864749 59.3220655,22.984507 59.3220655,22.984507 C59.3220655,22.984507 55.3953378,14.6927113 46.35292,12.4878305 C46.35292,12.4878305 51.5866469,11.113791 51.5866469,11.113791 C51.5866469,11.113791 48.0547121,7.81162676 42.4015536,6.75559888 L52.34128,7.01115419 L62.7583103,16.6701135 L67.1915646,30.6907029 L65.7000613,44.8545408 L58.8361666,56.1895075 L50.0069026,63.4888776 L38.7808047,66.6151327 L21.0552363,64.2182989 L5.00223734,49.7616611 L1.80092004,27.8916274 L4.34444026,18.4463948 L6.36653598,7.27816938 Z" id="Path-17"></path>
            </g>
        </g>
    </g>
</svg>